<svg width="28" height="225" viewBox="0 0 28 225" fill="none" xmlns="http://www.w3.org/2000/svg">
<path d="M27.3585 221.713L27.3585 224.592L0.625244 224.592L0.625244 213.29L3.09293 213.29L3.09293 221.73L12.5524 221.73L12.5524 214.935L15.0201 214.935L15.0201 221.73L27.3585 221.73L27.3585 221.713Z" fill="black"/>
<path d="M0.625244 193.499L17.8168 193.499L17.8168 191.443L20.2844 191.443L20.2844 193.499L24.8908 193.499L24.8908 196.378L20.2844 196.378L20.2844 207.285L17.8168 207.285L0.625244 196.378L0.625244 193.499ZM17.8168 196.378L5.3961 196.214L17.8168 204.077L17.8168 196.378Z" fill="#009245"/>
<path d="M22.2255 170.303L19.9552 170.303L19.9552 167.424L22.2255 167.424C24.068 167.424 25.4828 167.983 26.4863 169.118C27.4899 170.237 27.9834 171.932 27.9834 174.185C27.9834 176.439 27.4899 178.134 26.4863 179.285C25.4828 180.437 24.068 181.013 22.2255 181.013L5.77428 181.013C3.93175 181.013 2.51694 180.453 1.51341 179.318C0.50989 178.2 0.0163572 176.505 0.0163571 174.268C0.016357 172.014 0.509889 170.319 1.51341 169.168C2.51694 168.016 3.93175 167.44 5.77428 167.44L14.8225 167.44L14.8225 178.134L22.2255 178.134C24.4135 178.134 25.5157 176.834 25.5157 174.235C25.5157 171.619 24.4135 170.303 22.2255 170.303ZM5.77428 178.117L12.3548 178.117L12.3548 170.303L5.77428 170.303C3.58627 170.303 2.48404 171.603 2.48404 174.218C2.48404 176.818 3.58627 178.117 5.77428 178.117Z" fill="black"/>
<path d="M27.3585 156.731L0.625244 156.731L0.625244 153.852L24.8908 153.852L24.8908 146.334L27.3585 146.334L27.3585 156.731Z" fill="black"/>
<path d="M22.2255 128.237L19.9552 128.237L19.9552 125.358L22.2255 125.358C24.068 125.358 25.4828 125.918 26.4863 127.053C27.4899 128.171 27.9834 129.866 27.9834 132.12C27.9834 134.374 27.4899 136.068 26.4863 137.22C25.4828 138.371 24.068 138.947 22.2255 138.947L5.77428 138.947C3.93175 138.947 2.51694 138.388 1.51341 137.253C0.50989 136.134 0.0163572 134.439 0.0163571 132.186C0.016357 129.932 0.509889 128.237 1.51341 127.086C2.51694 125.934 3.93175 125.358 5.77428 125.358L14.8225 125.358L14.8225 136.052L22.2255 136.052C24.4135 136.052 25.5157 134.752 25.5157 132.136C25.5157 129.537 24.4135 128.237 22.2255 128.237ZM5.77428 136.052L12.3548 136.052L12.3548 128.237L5.77428 128.237C3.58627 128.237 2.48404 129.537 2.48404 132.153C2.48404 134.752 3.58627 136.052 5.77428 136.052Z" fill="black"/>
<path d="M27.3584 111.786L27.3584 114.665L0.625134 114.665L0.625134 113.431L3.25733 112.395C2.27026 111.819 1.48061 111.062 0.888369 110.141C0.296126 109.203 -2.82608e-07 108.2 -3.30788e-07 107.097C-4.51598e-07 104.334 1.00351 102.557 3.01056 101.784C1.00351 100.468 -6.96094e-07 98.7403 -7.89578e-07 96.6016C-9.58567e-07 92.7356 1.92479 90.7943 5.75792 90.7943L27.3584 90.7943L27.3584 93.6897L5.75792 93.6897C3.56991 93.6897 2.46768 94.6768 2.46768 96.651C2.46768 97.8025 2.92832 98.8719 3.86603 99.8425C4.80375 100.813 5.70857 101.307 6.58049 101.307L27.3584 101.307L27.3584 104.186L5.75792 104.186C3.56991 104.186 2.46768 105.173 2.46768 107.147C2.46768 108.298 2.91186 109.368 3.80023 110.338C4.68859 111.309 5.57695 111.803 6.44887 111.803L27.3584 111.803L27.3584 111.786Z" fill="black"/>
<path d="M22.2255 69.8354L19.9552 69.8354L19.9552 66.9565L22.2255 66.9565C24.068 66.9565 25.4828 67.5158 26.4863 68.6509C27.4899 69.7696 27.9834 71.4641 27.9834 73.7179C27.9834 75.9717 27.4899 77.6662 26.4863 78.8178C25.4828 79.9694 24.068 80.5452 22.2255 80.5452L5.77428 80.5452C3.93175 80.5452 2.51694 79.9858 1.51341 78.8507C0.50989 77.732 0.0163572 76.0375 0.0163571 73.7837C0.016357 71.5299 0.509889 69.8354 1.51341 68.6838C2.51694 67.5323 3.93175 66.9565 5.77428 66.9565L14.8225 66.9565L14.8225 77.6498L22.2255 77.6498C24.4135 77.6498 25.5157 76.3501 25.5157 73.7344C25.5157 71.1351 24.4135 69.8354 22.2255 69.8354ZM5.77428 77.6498L12.3548 77.6498L12.3548 69.8354L5.77428 69.8354C3.58627 69.8354 2.48404 71.1351 2.48404 73.7508C2.48404 76.3501 3.58627 77.6498 5.77428 77.6498Z" fill="black"/>
<path d="M27.3583 53.3842L27.3583 56.2632L0.625044 56.2632L0.625044 55.0293L3.3066 53.9929C1.11859 52.6768 0.0163572 50.8507 0.0163571 48.5147C0.0163569 44.4841 1.94115 42.4606 5.77428 42.4606L27.3747 42.4606L27.3747 45.3396L5.77428 45.3396C4.73786 45.3396 3.91529 45.5699 3.33949 46.0141C2.7637 46.4583 2.46759 47.2973 2.46759 48.4982C2.46759 49.6992 2.92823 50.8178 3.86595 51.8378C4.80367 52.8578 5.70848 53.3678 6.5804 53.3678L27.3583 53.3678L27.3583 53.3842Z" fill="black"/>
<path d="M0.625244 32.1951L0.625244 23.1469L3.09293 23.1469L3.09293 29.3161L22.8015 29.3161C23.5747 29.3161 24.2163 29.1187 24.7427 28.7239C25.2692 28.329 25.5324 27.7697 25.5324 27.0294C25.5324 26.3055 25.2856 25.7462 24.7756 25.3678C24.2656 24.9894 23.6241 24.792 22.818 24.792L17.9155 24.792L17.9155 21.9131L22.6534 21.9131C24.3808 21.9131 25.6969 22.3737 26.6182 23.295C27.5394 24.2162 28.0001 25.4501 28.0001 27.0129C28.0001 28.5758 27.5394 29.8261 26.6182 30.7803C25.6969 31.7344 24.3808 32.1951 22.6534 32.1951L0.625244 32.1951Z" fill="black"/>
<path d="M22.2255 -1.71181e-08C26.0586 -1.8467e-07 27.9834 2.31963 27.9834 6.95887C27.9834 11.5981 26.0586 13.9177 22.2255 13.9177L18.7214 13.9177L18.7214 11.0388L22.39 11.0388C23.3771 11.0388 24.1503 10.6933 24.6932 10.0023C25.2361 9.3114 25.5157 8.30787 25.5157 6.95887C25.5157 5.60987 25.2361 4.60635 24.6932 3.9154C24.1503 3.22445 23.3935 2.87896 22.4558 2.87896C21.5181 2.87896 20.7614 2.97767 20.1856 3.19154C19.6262 3.40541 19.034 3.81668 18.3924 4.44183L11.3183 11.6804C10.4629 12.5358 9.64032 13.1116 8.8342 13.4242C8.0281 13.7368 7.00812 13.9013 5.77428 13.9013C3.93175 13.9013 2.51694 13.3255 1.51341 12.1903C0.50989 11.0552 0.0163572 9.32783 0.0163571 7.02466C0.0163569 2.61574 1.94115 0.394834 5.77428 0.394834L9.2784 0.394834L9.2784 3.2738L5.60977 3.2738C4.6227 3.2738 3.84949 3.60282 3.3066 4.24442C2.76371 4.88602 2.48404 5.85664 2.48404 7.13983C2.48404 8.42303 2.76371 9.39364 3.3066 10.0352C3.84949 10.6768 4.60625 11.0059 5.57688 11.0059C6.53105 11.0059 7.28779 10.9072 7.84713 10.7097C8.39002 10.5123 8.96581 10.0846 9.57451 9.42655L16.6486 2.0564C17.5205 1.26674 18.3759 0.707402 19.182 0.411281C19.9717 0.148062 20.9917 3.68148e-08 22.2255 -1.71181e-08Z" fill="black"/>
<path d="M24.8906 191.443L24.8906 207.285L27.3583 207.285L27.3583 191.443L24.8906 191.443Z" fill="#009245"/>
</svg>
