<svg width="10" height="19" viewBox="0 0 10 19" fill="none" xmlns="http://www.w3.org/2000/svg">
<path fill-rule="evenodd" clip-rule="evenodd" d="M2.6968 9.64195V18.2355C2.6968 18.3516 2.79357 18.4678 2.92905 18.4678H6.1226C6.23873 18.4678 6.35486 18.371 6.35486 18.2355V9.48712H8.65809C8.77422 9.48712 8.87099 9.39034 8.89035 9.27421L9.08389 6.66131C9.10325 6.52583 8.98712 6.4097 8.85164 6.4097H6.33551V4.55163C6.33551 4.10647 6.68389 3.75808 7.12906 3.75808H8.9097C9.02583 3.75808 9.14196 3.66131 9.14196 3.52583V0.912922C9.14196 0.796793 9.04519 0.680664 8.9097 0.680664H5.89035C4.12905 0.680664 2.6968 2.11292 2.6968 3.87421V6.4097H1.1097C0.993571 6.4097 0.877441 6.50647 0.877441 6.64195V9.27421C0.877441 9.39034 0.974216 9.50647 1.1097 9.50647H2.6968V9.64195Z" fill="white"/>
</svg>
