<svg width="19" height="19" viewBox="0 0 19 19" fill="none" xmlns="http://www.w3.org/2000/svg">
<path d="M9.13656 4.98828C8.23335 4.98828 7.35042 5.25612 6.59942 5.75792C5.84842 6.25972 5.26309 6.97294 4.91745 7.80741C4.5718 8.64187 4.48137 9.56009 4.65757 10.4459C4.83378 11.3318 5.26872 12.1455 5.90739 12.7842C6.54606 13.4229 7.35978 13.8578 8.24564 14.034C9.1315 14.2102 10.0497 14.1198 10.8842 13.7741C11.7186 13.4285 12.4319 12.8432 12.9337 12.0922C13.4355 11.3412 13.7033 10.4582 13.7033 9.55502C13.7033 8.95531 13.5852 8.36146 13.3557 7.80739C13.1262 7.25332 12.7898 6.74989 12.3658 6.32582C11.9417 5.90176 11.4383 5.56538 10.8842 5.33588C10.3301 5.10638 9.73628 4.98827 9.13656 4.98828ZM9.13656 12.5197C8.55019 12.5197 7.97699 12.3459 7.48944 12.0201C7.00188 11.6943 6.62189 11.2313 6.39749 10.6895C6.1731 10.1478 6.11439 9.55169 6.22879 8.97658C6.34319 8.40148 6.62556 7.87321 7.04019 7.45859C7.45482 7.04396 7.98309 6.7616 8.5582 6.6472C9.13331 6.53281 9.72942 6.59153 10.2712 6.81593C10.8129 7.04033 11.2759 7.42033 11.6017 7.90789C11.9275 8.39544 12.1013 8.96865 12.1013 9.55502C12.1014 9.94437 12.0247 10.3299 11.8757 10.6896C11.7268 11.0494 11.5084 11.3762 11.2331 11.6515C10.9578 11.9268 10.6309 12.1452 10.2712 12.2942C9.91146 12.4432 9.52591 12.5198 9.13656 12.5197Z" fill="white"/>
<path d="M17.9764 5.88853C17.9618 5.15077 17.8222 4.42085 17.5633 3.72983C17.3396 3.13653 16.9896 2.59896 16.5375 2.15438C16.0936 1.70182 15.5561 1.35171 14.9628 1.12853C14.2718 0.869537 13.5418 0.729859 12.8041 0.715463C11.8558 0.672293 11.5527 0.661621 9.13745 0.661621C6.72225 0.661621 6.41886 0.671635 5.47006 0.715463C4.73231 0.730041 4.00239 0.869714 3.31138 1.12853C2.71791 1.35191 2.18027 1.70199 1.73592 2.15438C1.28312 2.59838 0.932995 3.13611 0.710138 3.72983C0.451322 4.42085 0.31165 5.15078 0.297068 5.88853C0.253232 6.83678 0.243164 7.13997 0.243164 9.55517C0.243164 11.9704 0.253232 12.2735 0.29705 13.2218C0.311634 13.9595 0.451313 14.6895 0.710138 15.3805C0.933059 15.9742 1.28317 16.5119 1.73592 16.956C2.18049 17.4081 2.71806 17.7581 3.31138 17.9817C4.00241 18.2405 4.73232 18.3802 5.47006 18.3948C6.41886 18.438 6.72151 18.4487 9.13671 18.4487C11.5519 18.4487 11.8551 18.4387 12.8034 18.3948C13.5411 18.3802 14.271 18.2406 14.962 17.9817C15.5529 17.7533 16.0896 17.4039 16.5375 16.956C16.9855 16.508 17.3349 15.9714 17.5633 15.3805C17.8225 14.6896 17.9621 13.9596 17.9764 13.2218C18.0196 12.2728 18.0296 11.9704 18.0296 9.55517C18.0296 7.13997 18.0196 6.83678 17.9764 5.88853ZM16.3765 13.1493C16.3696 13.7132 16.2661 14.2719 16.0705 14.8009C15.9225 15.1844 15.6958 15.5327 15.4051 15.8233C15.1143 16.114 14.7659 16.3405 14.3823 16.4883C13.8534 16.6844 13.2947 16.7879 12.7307 16.7943C11.7933 16.8374 11.5117 16.846 9.13666 16.846C6.76163 16.846 6.48084 16.8374 5.54366 16.7943C4.97965 16.7878 4.42096 16.6843 3.89206 16.4883C3.50577 16.3456 3.15626 16.1183 2.86909 15.8231C2.57346 15.5366 2.3461 15.1872 2.20385 14.8009C2.00777 14.272 1.90428 13.7133 1.89792 13.1493C1.85478 12.2118 1.8462 11.9303 1.8462 9.55523C1.8462 7.1802 1.85553 6.89941 1.89792 5.96117C1.90502 5.39725 2.00849 4.83869 2.20385 4.30964C2.34661 3.92334 2.57389 3.57383 2.86909 3.28667C3.15576 2.99087 3.50541 2.76349 3.89206 2.62143C4.42095 2.42537 4.97965 2.32188 5.54366 2.31549C6.48111 2.27237 6.76269 2.26378 9.13666 2.26378C11.5106 2.26378 11.7925 2.27311 12.7307 2.31549C13.2947 2.3226 13.8532 2.42607 14.3823 2.62143C14.766 2.76929 15.1145 2.99591 15.4053 3.28668C15.6961 3.57746 15.9227 3.92593 16.0705 4.30965C16.2666 4.83851 16.3701 5.39719 16.3765 5.96118C16.4196 6.89945 16.4282 7.18025 16.4282 9.55524C16.4282 11.9302 16.4196 12.211 16.3765 13.1493H16.3765Z" fill="white"/>
<path d="M13.8846 3.74072H13.8842C13.6012 3.74077 13.3299 3.85323 13.1298 4.05335C12.9297 4.25348 12.8174 4.52488 12.8174 4.80786C12.8174 5.09084 12.9298 5.36222 13.1299 5.56231C13.3301 5.76239 13.6014 5.8748 13.8844 5.8748C14.1674 5.8748 14.4388 5.76239 14.6389 5.56231C14.839 5.36222 14.9514 5.09084 14.9515 4.80786C14.9515 4.52488 14.8391 4.25348 14.639 4.05335C14.439 3.85323 14.1676 3.74077 13.8846 3.74072Z" fill="white"/>
</svg>
