<svg width="20" height="19" viewBox="0 0 20 19" fill="none" xmlns="http://www.w3.org/2000/svg">
<path d="M4.86476 6.44146V18.4472H0.839734V6.44146H4.86476ZM5.12066 2.73495C5.12141 2.75644 5.12215 2.78164 5.12215 2.80757C5.12215 3.36259 4.8849 3.86202 4.5059 4.21178L4.50441 4.21252C4.0978 4.58154 3.55392 4.80755 2.95632 4.80755C2.91977 4.80755 2.88246 4.80681 2.84591 4.80532H2.85113H2.82651C2.79592 4.80681 2.76011 4.80755 2.7243 4.80755C2.13938 4.80755 1.60818 4.5808 1.21351 4.21178L1.21426 4.21252C0.838241 3.85091 0.605469 3.34554 0.605469 2.78608C0.605469 2.7683 0.605469 2.75052 0.606215 2.73199V2.73495C0.605469 2.71939 0.605469 2.70161 0.605469 2.68383C0.605469 2.11918 0.847194 1.61085 1.23291 1.25443L1.2344 1.25368C1.64026 0.886887 2.18265 0.661621 2.77727 0.661621C2.81159 0.661621 2.84516 0.662362 2.87948 0.663844H2.875C2.90708 0.662362 2.94364 0.661621 2.98169 0.661621C3.56735 0.661621 4.10079 0.886146 4.49919 1.25294L4.4977 1.25146C4.88192 1.61974 5.12066 2.13548 5.12066 2.7068V2.73792V2.73644V2.73495ZM19.3422 11.5677V18.4472H15.3298V12.0264C15.3336 11.9679 15.3351 11.8997 15.3351 11.8315C15.3351 11.1676 15.1493 10.5474 14.8262 10.0183L14.8352 10.0339C14.5166 9.59222 14.0018 9.30841 13.4206 9.30841C13.3759 9.30841 13.3311 9.3099 13.2864 9.3136H13.2923C13.2722 9.31286 13.2491 9.31212 13.2259 9.31212C12.7634 9.31212 12.3381 9.46995 12.0016 9.73449L12.0061 9.73153C11.6681 10.0035 11.4033 10.351 11.2362 10.7504L11.2302 10.7675C11.1437 11.0305 11.0944 11.3328 11.0944 11.647C11.0944 11.6826 11.0952 11.7182 11.0967 11.7537V11.7485V18.4487H7.08431C7.10072 15.2263 7.10893 12.6135 7.10893 10.6104C7.10893 8.60717 7.10495 7.41193 7.09699 7.02463L7.08505 6.44295H11.0974V8.18727H11.0728C11.2324 7.93163 11.3973 7.71006 11.5786 7.50258L11.5726 7.50925C11.7823 7.28028 12.0076 7.07354 12.2501 6.88829L12.262 6.8794C12.5634 6.64894 12.9171 6.46814 13.3005 6.35773L13.3229 6.35254C13.7243 6.23324 14.1861 6.16433 14.6636 6.16433H14.7225H14.7196C14.7725 6.1621 14.8344 6.16062 14.8964 6.16062C16.1505 6.16062 17.2801 6.6897 18.0716 7.53593L18.0739 7.53889C18.9204 8.45576 19.3437 9.79846 19.3437 11.567L19.3422 11.5677Z" fill="white"/>
</svg>
