<svg width="22" height="19" viewBox="0 0 22 19" fill="none" xmlns="http://www.w3.org/2000/svg">
<path d="M21.9312 2.76798C21.1078 3.12714 20.2369 3.36586 19.3454 3.47677C20.285 2.91932 20.9874 2.0366 21.3196 0.995876C20.4401 1.51748 19.4779 1.88484 18.4746 2.08207C17.8593 1.42465 17.0604 0.967548 16.1818 0.770213C15.3032 0.572878 14.3856 0.644434 13.5483 0.975577C12.7109 1.30672 11.9925 1.88213 11.4866 2.627C10.9806 3.37186 10.7104 4.25173 10.7112 5.15219C10.7077 5.4958 10.7426 5.83872 10.8152 6.1746C9.02988 6.08707 7.28314 5.62373 5.68916 4.81487C4.09518 4.006 2.68986 2.86983 1.56507 1.48063C0.987597 2.46784 0.808643 3.63821 1.06473 4.75287C1.32083 5.86753 1.99266 6.84244 2.9431 7.47861C2.23303 7.45942 1.53798 7.26984 0.916509 6.92584V6.97474C0.917677 8.01108 1.27584 9.01537 1.93072 9.81857C2.58559 10.6218 3.49718 11.1748 4.51205 11.3847C4.12812 11.4859 3.73243 11.5356 3.33539 11.5325C3.0503 11.5375 2.76549 11.5118 2.48591 11.4558C2.77595 12.3464 3.33493 13.1253 4.08591 13.6851C4.83689 14.245 5.74294 14.5583 6.67934 14.5819C5.09084 15.8242 3.13178 16.4981 1.11521 16.496C0.756194 16.4984 0.397394 16.4778 0.0410156 16.4342C2.09305 17.7566 4.48422 18.4561 6.92538 18.4482C15.1833 18.4482 19.6984 11.6076 19.6984 5.67806C19.6984 5.47958 19.6915 5.28821 19.6819 5.09796C20.5671 4.46449 21.3293 3.67492 21.9312 2.76798Z" fill="white"/>
</svg>
