<svg width="25" height="19" viewBox="0 0 25 19" fill="none" xmlns="http://www.w3.org/2000/svg">
<path d="M21.0224 1.27338L15.7285 0.813383C13.3935 0.610383 11.0454 0.610383 8.7105 0.813383L3.41652 1.27338C2.54226 1.3447 1.72718 1.74355 1.1344 2.3901C0.541615 3.03665 0.214863 3.88321 0.219532 4.76037V14.2593C0.214863 15.1365 0.541615 15.983 1.1344 16.6296C1.72718 17.2761 2.54226 17.675 3.41652 17.7463L8.7105 18.2063C9.87449 18.3083 11.0465 18.3583 12.2195 18.3583C13.3925 18.3583 14.5645 18.3083 15.7285 18.2063L21.0224 17.7463C21.8965 17.6745 22.7113 17.2756 23.304 16.6291C23.8967 15.9827 24.2236 15.1363 24.2194 14.2593V4.76037C24.2241 3.88321 23.8974 3.03665 23.3046 2.3901C22.7118 1.74355 21.8967 1.3447 21.0224 1.27338ZM9.21949 5.00937C9.21913 4.91947 9.24307 4.83114 9.28876 4.75372C9.33446 4.6763 9.40022 4.61266 9.4791 4.56953C9.55799 4.52641 9.64705 4.50539 9.73689 4.5087C9.82673 4.51202 9.91401 4.53954 9.98949 4.58837L16.9895 9.08835C17.0599 9.13355 17.1179 9.19571 17.1581 9.26913C17.1982 9.34255 17.2193 9.42488 17.2194 9.50857C17.2195 9.59227 17.1986 9.67465 17.1586 9.74817C17.1186 9.82168 17.0608 9.88398 16.9905 9.92935L9.99049 14.4293C9.9147 14.4772 9.82754 14.5042 9.73793 14.5073C9.64832 14.5105 9.55947 14.4898 9.48049 14.4473C9.40142 14.4048 9.33537 14.3416 9.28941 14.2644C9.24344 14.1873 9.21928 14.0991 9.21949 14.0093V5.00937Z" fill="white"/>
</svg>
