<svg width="41" height="42" viewBox="0 0 41 42" fill="none" xmlns="http://www.w3.org/2000/svg">
<path fill-rule="evenodd" clip-rule="evenodd" d="M16.5653 21.0413V35.7219C16.5653 35.9203 16.7307 36.1187 16.9621 36.1187H22.4178C22.6161 36.1187 22.8145 35.9534 22.8145 35.7219V20.7768H26.7492C26.9476 20.7768 27.1129 20.6115 27.146 20.4131L27.4766 15.9494C27.5097 15.7179 27.3113 15.5195 27.0799 15.5195H22.7815V12.3453C22.7815 11.5848 23.3766 10.9897 24.1371 10.9897H27.1791C27.3774 10.9897 27.5758 10.8244 27.5758 10.5929V6.1292C27.5758 5.93081 27.4105 5.73242 27.1791 5.73242H22.021C19.0121 5.73242 16.5653 8.17919 16.5653 11.1881V15.5195H13.854C13.6557 15.5195 13.4573 15.6848 13.4573 15.9163V20.4131C13.4573 20.6115 13.6226 20.8098 13.854 20.8098H16.5653V21.0413Z" fill="#067018"/>
</svg>
