<svg width="41" height="42" viewBox="0 0 41 42" fill="none" xmlns="http://www.w3.org/2000/svg">
<path d="M20.4834 13.0908C18.9404 13.0908 17.4321 13.5484 16.1491 14.4056C14.8662 15.2629 13.8662 16.4813 13.2757 17.9068C12.6853 19.3324 12.5308 20.901 12.8318 22.4143C13.1328 23.9277 13.8758 25.3178 14.9669 26.4088C16.058 27.4999 17.4481 28.2429 18.9614 28.5439C20.4747 28.845 22.0434 28.6905 23.4689 28.1C24.8944 27.5095 26.1129 26.5096 26.9701 25.2266C27.8274 23.9437 28.2849 22.4353 28.2849 20.8923C28.2849 19.8678 28.0832 18.8533 27.6911 17.9068C27.299 16.9603 26.7244 16.1002 25.9999 15.3758C25.2755 14.6513 24.4155 14.0767 23.4689 13.6846C22.5224 13.2926 21.5079 13.0908 20.4834 13.0908ZM20.4834 25.9571C19.4817 25.9571 18.5025 25.66 17.6696 25.1035C16.8367 24.547 16.1875 23.756 15.8042 22.8305C15.4208 21.905 15.3205 20.8866 15.516 19.9042C15.7114 18.9217 16.1938 18.0192 16.9021 17.3109C17.6104 16.6026 18.5129 16.1202 19.4954 15.9248C20.4778 15.7294 21.4962 15.8297 22.4217 16.213C23.3471 16.5964 24.1381 17.2456 24.6947 18.0785C25.2512 18.9114 25.5482 19.8906 25.5482 20.8923C25.5483 21.5575 25.4173 22.2161 25.1628 22.8306C24.9083 23.4452 24.5353 24.0035 24.0649 24.4738C23.5946 24.9442 23.0362 25.3172 22.4217 25.5717C21.8072 25.8262 21.1485 25.9572 20.4834 25.9571Z" fill="#067018"/>
<path d="M35.5846 14.6285C35.5597 13.3682 35.3211 12.1212 34.8789 10.9407C34.4968 9.92719 33.8988 9.00884 33.1264 8.24934C32.3681 7.47623 31.45 6.87812 30.4363 6.49686C29.2559 6.05441 28.0089 5.81579 26.7485 5.7912C25.1285 5.71745 24.6107 5.69922 20.4847 5.69922C16.3587 5.69922 15.8404 5.71633 14.2196 5.7912C12.9592 5.8161 11.7123 6.05471 10.5318 6.49686C9.51797 6.87847 8.59951 7.47652 7.84041 8.24934C7.06687 9.00784 6.46874 9.92648 6.08803 10.9407C5.64589 12.1212 5.40728 13.3682 5.38237 14.6285C5.30748 16.2484 5.29028 16.7664 5.29028 20.8924C5.29028 25.0183 5.30748 25.5362 5.38234 27.1561C5.40725 28.4165 5.64587 29.6635 6.08803 30.844C6.46885 31.8582 7.06696 32.7768 7.84041 33.5354C8.59988 34.3077 9.51824 34.9057 10.5318 35.2878C11.7123 35.7298 12.9593 35.9684 14.2196 35.9935C15.8404 36.0671 16.3575 36.0855 20.4834 36.0855C24.6094 36.0855 25.1273 36.0683 26.7473 35.9935C28.0076 35.9685 29.2546 35.7299 30.435 35.2878C31.4445 34.8975 32.3612 34.3006 33.1265 33.5354C33.8917 32.7701 34.4886 31.8534 34.8789 30.844C35.3216 29.6636 35.5602 28.4165 35.5846 27.1561C35.6583 25.535 35.6754 25.0183 35.6754 20.8924C35.6754 16.7664 35.6583 16.2484 35.5846 14.6285ZM32.8513 27.0323C32.8397 27.9957 32.6629 28.9501 32.3287 29.8538C32.0758 30.509 31.6886 31.104 31.1918 31.6005C30.6951 32.097 30.1 32.484 29.4447 32.7365C28.5412 33.0715 27.5867 33.2483 26.6232 33.2592C25.0217 33.3328 24.5407 33.3475 20.4833 33.3475C16.426 33.3475 15.9463 33.3328 14.3453 33.2592C13.3818 33.2482 12.4274 33.0714 11.5238 32.7365C10.8639 32.4927 10.2668 32.1044 9.77624 31.6001C9.27121 31.1106 8.88279 30.5138 8.63979 29.8538C8.30482 28.9503 8.12802 27.9958 8.11715 27.0323C8.04346 25.4308 8.0288 24.9498 8.0288 20.8925C8.0288 16.8351 8.04474 16.3554 8.11715 14.7526C8.12929 13.7892 8.30605 12.835 8.63979 11.9312C8.88367 11.2713 9.27195 10.6742 9.77624 10.1837C10.266 9.67835 10.8633 9.2899 11.5238 9.04723C12.4273 8.71229 13.3818 8.53549 14.3453 8.52458C15.9468 8.45091 16.4278 8.43623 20.4833 8.43623C24.5389 8.43623 25.0204 8.45217 26.6232 8.52458C27.5866 8.53672 28.5408 8.71348 29.4447 9.04723C30.1002 9.29981 30.6955 9.68696 31.1922 10.1837C31.689 10.6804 32.0761 11.2757 32.3287 11.9313C32.6636 12.8347 32.8404 13.7891 32.8513 14.7526C32.925 16.3555 32.9397 16.8352 32.9397 20.8925C32.9397 24.9498 32.925 25.4295 32.8514 27.0323H32.8513Z" fill="#067018"/>
<path d="M28.5944 10.959H28.5938C28.1103 10.9591 27.6468 11.1512 27.305 11.4931C26.9632 11.8349 26.7712 12.2986 26.7712 12.782C26.7713 13.2654 26.9634 13.729 27.3052 14.0709C27.647 14.4127 28.1107 14.6047 28.5941 14.6047C29.0775 14.6047 29.5411 14.4127 29.883 14.0709C30.2248 13.729 30.4169 13.2654 30.417 12.782C30.417 12.2986 30.225 11.8349 29.8832 11.4931C29.5414 11.1512 29.0779 10.9591 28.5944 10.959Z" fill="#067018"/>
</svg>
