<svg width="43" height="42" viewBox="0 0 43 42" fill="none" xmlns="http://www.w3.org/2000/svg">
<path d="M12.9355 15.5731V36.083H6.05938V15.5731H12.9355ZM13.3726 9.24116C13.3739 9.27787 13.3752 9.32091 13.3752 9.36522C13.3752 10.3134 12.9699 11.1666 12.3224 11.7641L12.3199 11.7653C11.6253 12.3957 10.6961 12.7818 9.67522 12.7818C9.61277 12.7818 9.54904 12.7806 9.48659 12.778H9.49551H9.45345C9.4012 12.7806 9.34002 12.7818 9.27884 12.7818C8.27961 12.7818 7.37215 12.3945 6.69792 11.7641L6.6992 11.7653C6.05683 11.1476 5.65918 10.2843 5.65918 9.32851C5.65918 9.29813 5.65918 9.26775 5.66045 9.2361V9.24116C5.65918 9.21458 5.65918 9.1842 5.65918 9.15382C5.65918 8.18921 6.07213 7.32082 6.73106 6.71193L6.73361 6.71066C7.42695 6.08405 8.35354 5.69922 9.36934 5.69922C9.42796 5.69922 9.48532 5.70048 9.54395 5.70302H9.5363C9.5911 5.70048 9.65356 5.69922 9.71856 5.69922C10.7191 5.69922 11.6304 6.08278 12.3109 6.70939L12.3084 6.70686C12.9648 7.33601 13.3726 8.21706 13.3726 9.19306V9.24623V9.2437V9.24116ZM37.6677 24.3305V36.083H30.8133V25.1141C30.8197 25.0141 30.8222 24.8976 30.8222 24.7812C30.8222 23.6469 30.5049 22.5874 29.953 21.6835L29.9683 21.7101C29.4241 20.9557 28.5446 20.4708 27.5518 20.4708C27.4753 20.4708 27.3988 20.4734 27.3224 20.4797H27.3326C27.2981 20.4784 27.2586 20.4772 27.2191 20.4772C26.4289 20.4772 25.7024 20.7468 25.1276 21.1987L25.1353 21.1936C24.5579 21.6582 24.1054 22.2519 23.82 22.9342L23.8098 22.9633C23.6619 23.4127 23.5778 23.9292 23.5778 24.466C23.5778 24.5267 23.5791 24.5875 23.5816 24.6482V24.6394V36.0855H16.7272C16.7552 30.5806 16.7693 26.1171 16.7693 22.695C16.7693 19.2729 16.7625 17.231 16.7489 16.5694L16.7285 15.5756H23.5829V18.5555H23.5408C23.8136 18.1188 24.0953 17.7403 24.405 17.3859L24.3948 17.3973C24.7529 17.0061 25.1378 16.6529 25.552 16.3364L25.5724 16.3213C26.0873 15.9276 26.6915 15.6187 27.3466 15.4301L27.3848 15.4212C28.0705 15.2174 28.8594 15.0997 29.6751 15.0997H29.7758H29.7707C29.8612 15.0959 29.967 15.0933 30.0728 15.0933C32.2153 15.0933 34.1449 15.9972 35.4972 17.4428L35.501 17.4479C36.9472 19.0142 37.6703 21.308 37.6703 24.3292L37.6677 24.3305Z" fill="#067018"/>
</svg>
