<svg width="41" height="42" viewBox="0 0 41 42" fill="none" xmlns="http://www.w3.org/2000/svg">
<path d="M39.0491 9.29841C37.6424 9.91199 36.1546 10.3198 34.6317 10.5093C36.2367 9.55696 37.4367 8.04898 38.0042 6.27107C36.5017 7.16214 34.858 7.78971 33.144 8.12666C32.0928 7.00355 30.7281 6.22268 29.2272 5.88556C27.7263 5.54845 26.1587 5.67069 24.7282 6.23639C23.2977 6.8021 22.0705 7.78509 21.2061 9.05757C20.3418 10.3301 19.8802 11.8331 19.8815 13.3714C19.8756 13.9584 19.9352 14.5443 20.0592 15.1181C17.0093 14.9685 14.0253 14.177 11.3022 12.7952C8.57918 11.4134 6.17843 9.47241 4.25692 7.09919C3.2704 8.78567 2.96468 10.7851 3.40217 12.6893C3.83966 14.5935 4.98738 16.259 6.61105 17.3457C5.39802 17.313 4.21064 16.9891 3.14895 16.4014V16.485C3.15095 18.2554 3.76282 19.971 4.88156 21.3432C6.0003 22.7153 7.55761 23.6601 9.29134 24.0186C8.63545 24.1915 7.95949 24.2764 7.28122 24.2711C6.79418 24.2797 6.30763 24.2358 5.83001 24.1401C6.3255 25.6616 7.28043 26.9922 8.56335 27.9486C9.84628 28.9049 11.3941 29.4402 12.9938 29.4805C10.2801 31.6027 6.93337 32.754 3.4884 32.7505C2.87508 32.7545 2.26213 32.7193 1.65332 32.6449C5.15887 34.9039 9.24379 36.0989 13.4141 36.0854C27.5214 36.0854 35.2346 24.3994 35.2346 14.2698C35.2346 13.9307 35.2229 13.6038 35.2065 13.2788C36.7187 12.1966 38.0209 10.8478 39.0491 9.29841Z" fill="#067018"/>
</svg>
