<svg width="41" height="42" viewBox="0 0 41 42" fill="none" xmlns="http://www.w3.org/2000/svg">
<g clip-path="url(#clip0)">
<path d="M35.5384 6.74514L26.4945 5.95931C22.5057 5.61252 18.4943 5.61252 14.5055 5.95931L5.4616 6.74514C3.96807 6.86698 2.57565 7.54834 1.56298 8.65287C0.55031 9.7574 -0.00789133 11.2036 8.43027e-05 12.7021V28.9295C-0.00789133 30.4279 0.55031 31.8741 1.56298 32.9787C2.57565 34.0832 3.96807 34.7646 5.4616 34.8864L14.5055 35.6722C16.494 35.8465 18.4961 35.9319 20.5 35.9319C22.5039 35.9319 24.506 35.8465 26.4945 35.6722L35.5384 34.8864C37.0316 34.7638 38.4236 34.0822 39.4361 32.9778C40.4486 31.8735 41.0071 30.4277 40.9999 28.9295V12.7021C41.0079 11.2036 40.4497 9.7574 39.437 8.65287C38.4244 7.54834 37.0319 6.86698 35.5384 6.74514ZM15.375 13.1275C15.3744 12.9739 15.4153 12.823 15.4934 12.6907C15.5714 12.5585 15.6838 12.4497 15.8185 12.3761C15.9533 12.3024 16.1054 12.2665 16.2589 12.2722C16.4124 12.2778 16.5615 12.3248 16.6904 12.4082L28.6487 20.0957C28.7691 20.1729 28.8681 20.2791 28.9367 20.4045C29.0054 20.53 29.0414 20.6706 29.0416 20.8136C29.0418 20.9566 29.006 21.0973 28.9377 21.2229C28.8694 21.3485 28.7706 21.4549 28.6504 21.5324L16.6921 29.2199C16.5627 29.3017 16.4138 29.3477 16.2607 29.3531C16.1076 29.3585 15.9558 29.3232 15.8209 29.2506C15.6858 29.178 15.573 29.07 15.4945 28.9382C15.4159 28.8064 15.3746 28.6558 15.375 28.5024V13.1275Z" fill="#067018"/>
</g>
<defs>
<clipPath id="clip0">
<rect width="41" height="41" fill="white" transform="translate(0 0.40918)"/>
</clipPath>
</defs>
</svg>
