<svg width="80" height="80" viewBox="0 0 80 80" fill="none" xmlns="http://www.w3.org/2000/svg">
<path d="M57.9001 41.3L40.0001 55.7L22.1334 40.7667C21.7964 40.4865 21.4074 40.2755 20.9888 40.1457C20.5702 40.0158 20.1301 39.9697 19.6937 40.0099C19.2572 40.0502 18.833 40.176 18.4452 40.3802C18.0574 40.5844 17.7136 40.863 17.4334 41.2C17.1533 41.5371 16.9423 41.926 16.8124 42.3446C16.6826 42.7632 16.6365 43.2033 16.6767 43.6398C16.7169 44.0762 16.8427 44.5004 17.0469 44.8882C17.2511 45.2761 17.5297 45.6199 17.8668 45.9L37.8668 62.5667C38.4632 63.057 39.2113 63.325 39.9834 63.325C40.7555 63.325 41.5037 63.057 42.1001 62.5667L62.1001 46.4667C62.4425 46.1916 62.7272 45.8516 62.9378 45.4661C63.1484 45.0807 63.2807 44.6574 63.3271 44.2206C63.3736 43.7839 63.3333 43.3422 63.2085 42.9211C63.0838 42.5 62.877 42.1076 62.6001 41.7667C62.3226 41.4267 61.9808 41.1449 61.5941 40.9373C61.2075 40.7298 60.7837 40.6007 60.347 40.5573C59.9103 40.5139 59.4694 40.5572 59.0495 40.6847C58.6296 40.8121 58.239 41.0212 57.9001 41.3Z" fill="#067018"/>
<path d="M37.8668 39.2334C38.4632 39.7237 39.2114 39.9917 39.9834 39.9917C40.7555 39.9917 41.5037 39.7237 42.1001 39.2334L62.1001 23.1334C62.4425 22.8584 62.7272 22.5183 62.9378 22.1329C63.1484 21.7474 63.2807 21.3241 63.3272 20.8874C63.3736 20.4506 63.3333 20.009 63.2085 19.5878C63.0838 19.1667 62.877 18.7744 62.6001 18.4334C62.325 18.091 61.985 17.8063 61.5995 17.5958C61.2141 17.3852 60.7908 17.2529 60.354 17.2064C59.9173 17.1599 59.4757 17.2002 59.0545 17.325C58.6334 17.4498 58.2411 17.6566 57.9001 17.9334L40.0001 32.3668L22.1334 17.4334C21.4527 16.8676 20.5751 16.5954 19.6937 16.6767C18.8123 16.758 17.9992 17.186 17.4334 17.8668C16.8676 18.5475 16.5954 19.4251 16.6767 20.3065C16.758 21.1879 17.186 22.001 17.8668 22.5668L37.8668 39.2334Z" fill="#067018"/>
</svg>
